<?xml version="1.0" encoding="UTF-8" standalone="no"?>
<svg
   xmlns:dc="http://purl.org/dc/elements/1.1/"
   xmlns:cc="http://creativecommons.org/ns#"
   xmlns:rdf="http://www.w3.org/1999/02/22-rdf-syntax-ns#"
   xmlns:svg="http://www.w3.org/2000/svg"
   xmlns="http://www.w3.org/2000/svg"
   width="231.61812"
   height="35.485886"
   id="svg2"
   version="1.1">
  <defs
     id="defs15" />
  <title
     id="title4">black divider</title>
  <metadata
     id="metadata15">image/svg+xml<rdf:RDF>
  <cc:Work
     rdf:about="">
    <dc:format>image/svg+xml</dc:format>
    <dc:type
       rdf:resource="http://purl.org/dc/dcmitype/StillImage" />
    <dc:title>black divider</dc:title>
  </cc:Work>
</rdf:RDF>
</metadata>
  <g
     id="g7"
     transform="matrix(0.58110993,0,0,0.58110993,-63.979444,-93.08697)">
    <title
       id="title9">Layer 1</title>
    <path
       d="m 130.42479,192.48453 c 5.34721,-7.56743 3.67273,-18.67903 -0.89786,-21.88477 -8.06312,-5.85628 -16.87626,6.36629 -12.83714,18.52696 4.03111,12.51732 14.12214,21.26775 27.85974,23.76992 29.80334,5.26556 88.75392,-27.17806 126.13977,-37.10584 27.77255,-7.37498 44.73773,3.70697 53.89194,15.98065 -18.81464,-13.32713 -35.96277,-8.69195 -53.61063,-5.4198 -40.49223,7.50779 -82.37617,39.38407 -126.75807,34.37011 -20.7208,-3.09549 -35.23915,-23.67115 -34.04528,-39.80535 0.10605,-1.43376 0.33619,-2.83249 0.69714,-4.1808 2.72756,-9.56168 7.51998,-13.48331 11.76552,-14.64645 11.54058,-3.1619 22.97279,17.87191 7.79487,30.39537 z"
       id="path2383"
       style="fill:#000000;fill-rule:evenodd;stroke-width:1px" />
    <path
       d="m 487.11939,189.19992 c -5.67127,7.63101 -3.89527,18.8363 0.95227,22.06903 8.55175,5.90563 17.89917,-6.41998 13.61523,-18.68297 -4.27527,-12.62275 -14.97809,-21.44687 -29.54831,-23.96998 -31.60989,-5.31 -94.13333,27.40681 -133.78531,37.41824 -29.45575,7.43704 -47.44922,-3.73822 -57.1582,-16.11526 19.95495,13.43937 38.14233,8.76516 56.8598,5.46545 42.94666,-7.571 87.3692,-39.71573 134.4411,-34.65955 21.97669,3.12156 37.375,23.8705 36.10883,40.14055 -0.11249,1.44594 -0.35663,2.85634 -0.73944,4.21602 -2.89289,9.6422 -7.97577,13.59676 -12.47864,14.76979 -12.24005,3.18851 -24.36514,-18.0224 -8.26734,-30.65132 z"
       id="path2479"
       style="fill:#000000;fill-rule:evenodd;stroke-width:1px" />
  </g>
</svg>
